<?xml version="1.0" standalone="no"?>
<!DOCTYPE svg PUBLIC "-//W3C//DTD SVG 20010904//EN"
 "http://www.w3.org/TR/2001/REC-SVG-20010904/DTD/svg10.dtd">
<svg version="1.0" xmlns="http://www.w3.org/2000/svg"
 width="1600.000000pt" height="1600.000000pt" viewBox="0 0 1600.000000 1600.000000"
 preserveAspectRatio="xMidYMid meet">
<metadata>
Created by potrace 1.14, written by Peter Selinger 2001-2017
</metadata>
<g transform="translate(0.000000,1600.000000) scale(0.100000,-0.100000)"
fill="#000000" stroke="none">
<path d="M7698 14495 c-1 -1 -55 -6 -118 -9 -63 -4 -133 -9 -155 -11 -22 -2
-69 -7 -105 -10 -36 -3 -76 -8 -90 -10 -14 -2 -47 -6 -75 -10 -68 -8 -110 -14
-175 -25 -30 -5 -75 -12 -100 -15 -35 -5 -309 -61 -390 -80 -333 -77 -740
-213 -1095 -365 -156 -67 -480 -229 -624 -314 -62 -36 -118 -66 -122 -66 -5 0
-9 -4 -9 -10 0 -5 -4 -10 -10 -10 -21 0 -346 -217 -515 -343 -721 -541 -1272
-1160 -1747 -1962 -94 -160 -252 -473 -333 -665 -32 -74 -63 -148 -70 -165
-84 -196 -249 -718 -289 -911 -3 -10 -18 -82 -35 -159 -27 -130 -63 -331 -76
-434 -3 -24 -7 -55 -9 -70 -5 -30 -24 -194 -31 -266 -15 -174 -20 -306 -20
-590 0 -281 5 -403 20 -560 2 -22 6 -67 9 -100 9 -90 20 -177 31 -246 2 -13 9
-58 15 -99 24 -153 35 -216 66 -355 14 -60 26 -119 29 -130 12 -58 71 -276
106 -390 110 -360 238 -682 408 -1025 56 -113 81 -159 167 -312 115 -203 337
-544 432 -663 4 -5 25 -32 46 -60 l38 -50 -686 -3 -686 -2 0 -500 0 -500 1500
0 1500 0 0 1500 0 1500 -500 0 -500 0 0 -572 0 -571 -83 124 c-297 441 -533
938 -685 1439 -40 129 -107 392 -117 455 -3 17 -10 50 -15 75 -19 89 -40 226
-60 395 -6 50 -13 108 -16 130 -26 218 -26 798 1 1045 2 25 7 72 10 105 3 33
8 71 10 85 2 14 7 45 10 70 21 159 85 478 125 630 12 41 22 82 25 90 28 112
158 493 199 582 8 18 29 67 46 108 219 518 580 1080 959 1497 130 142 336 346
456 450 97 84 108 93 144 121 19 15 39 32 45 37 6 6 40 33 76 60 36 27 70 53
75 57 89 70 322 225 490 326 135 80 451 243 565 291 30 13 73 31 95 41 22 9
72 30 110 44 39 15 84 33 100 40 78 34 393 131 566 175 163 41 368 83 519 106
19 3 46 7 60 10 14 2 45 6 70 9 40 5 69 8 195 22 248 26 832 26 1075 -1 126
-14 307 -35 325 -39 11 -2 40 -7 65 -11 477 -73 978 -232 1428 -452 64 -32
120 -59 124 -61 5 -2 8 242 8 542 l0 546 -22 10 c-130 54 -655 231 -726 245
-9 1 -37 8 -62 15 -25 7 -46 12 -47 12 -2 -1 -17 4 -35 9 -18 6 -44 12 -58 15
-14 3 -39 9 -56 14 -51 17 -446 94 -534 105 -30 4 -57 8 -60 10 -3 1 -36 6
-73 10 -37 3 -76 8 -85 10 -24 4 -114 14 -192 20 -36 3 -87 8 -115 11 -55 6
-731 14 -737 9z"/>
<path d="M11500 11500 l0 -1500 500 0 500 0 2 567 3 568 81 -120 c385 -571
661 -1224 798 -1890 22 -104 31 -153 51 -275 3 -14 7 -50 11 -80 3 -30 8 -63
9 -72 2 -9 7 -48 10 -85 4 -37 9 -81 11 -98 26 -202 26 -800 -1 -1040 -1 -16
-6 -61 -10 -100 -4 -38 -9 -78 -11 -90 -2 -11 -6 -40 -9 -65 -6 -46 -8 -62
-26 -165 -13 -74 -15 -87 -29 -155 -6 -30 -13 -66 -16 -80 -18 -96 -123 -489
-144 -535 -5 -11 -19 -51 -31 -90 -43 -136 -162 -422 -254 -610 -304 -623
-705 -1163 -1216 -1637 -70 -65 -194 -172 -253 -218 -10 -8 -33 -27 -50 -41
-299 -248 -813 -557 -1201 -723 -60 -26 -124 -54 -140 -61 -157 -71 -727 -250
-860 -270 -11 -2 -87 -17 -170 -33 -156 -31 -168 -33 -355 -57 -271 -34 -381
-40 -720 -40 -305 0 -428 7 -665 35 -44 6 -101 12 -126 15 -26 3 -57 8 -70 10
-13 3 -41 7 -64 10 -22 4 -71 13 -110 20 -38 8 -81 16 -95 19 -302 57 -712
184 -985 306 -22 9 -69 30 -105 46 -36 15 -107 50 -158 76 -51 26 -95 48 -97
48 -3 0 -4 -246 -3 -546 l3 -546 115 -44 c190 -73 465 -164 638 -210 28 -8 78
-21 110 -30 31 -8 65 -17 76 -19 10 -3 57 -13 105 -25 129 -30 173 -40 206
-46 17 -2 75 -13 130 -24 55 -10 138 -24 185 -30 47 -6 99 -13 115 -16 63 -9
102 -13 175 -19 41 -4 86 -8 100 -11 155 -26 847 -25 1115 1 22 2 69 7 105 10
81 8 112 12 305 40 61 9 121 18 135 21 14 2 41 7 60 10 19 3 41 7 49 10 8 2
30 7 50 10 20 3 77 15 126 26 50 11 97 21 105 23 17 4 214 55 305 80 70 19
441 141 470 155 11 5 45 19 75 30 30 11 64 24 75 29 509 218 791 366 1165 614
621 413 1150 913 1610 1522 82 109 324 467 352 522 9 15 46 80 83 143 37 63
109 198 160 300 106 210 105 208 230 505 29 68 115 308 153 425 116 362 215
803 257 1155 3 28 8 61 10 75 3 14 7 57 11 95 3 39 8 84 9 100 27 294 28 880
0 1135 -2 19 -6 67 -10 105 -9 97 -15 156 -20 185 -3 14 -7 43 -10 65 -12 90
-27 182 -35 215 -5 19 -11 53 -15 75 -26 177 -128 575 -215 835 -220 662 -561
1317 -961 1849 l-80 106 685 3 686 2 0 500 0 500 -1500 0 -1500 0 0 -1500z"/>
<path d="M7500 11493 l0 -508 -93 -18 c-638 -125 -1178 -634 -1347 -1272 -28
-104 -30 -113 -50 -255 -11 -79 -5 -372 9 -455 110 -642 541 -1162 1145 -1382
76 -28 225 -66 301 -78 28 -5 57 -10 65 -12 8 -3 134 -6 280 -9 606 -10 584
-8 710 -50 381 -127 574 -561 434 -973 -89 -260 -304 -431 -599 -475 -16 -2
-441 -5 -942 -5 l-913 -1 0 -500 0 -500 500 0 500 0 0 -500 0 -500 500 0 500
0 0 510 c0 479 1 510 18 511 136 6 434 114 622 225 362 213 656 586 781 989
59 191 77 329 74 550 -4 203 -19 300 -81 500 -124 400 -424 769 -801 984 -161
92 -416 184 -568 205 -22 3 -56 8 -75 11 -70 11 -161 14 -485 15 -356 2 -409
7 -533 57 -275 109 -437 349 -448 663 -6 184 31 325 124 468 101 157 313 283
514 306 18 2 444 4 946 5 l912 1 0 500 0 500 -500 0 -500 0 0 500 0 500 -500
0 -500 0 0 -507z"/>
</g>
</svg>
